<svg width="53" height="53" viewBox="0 0 53 53" fill="none" xmlns="http://www.w3.org/2000/svg">
<g id="analytics">
<mask id="mask0_7_247" style="mask-type:alpha" maskUnits="userSpaceOnUse" x="0" y="0" width="53" height="53">
<rect id="Bounding box" width="52.7253" height="52.7253" fill="#D9D9D9"/>
</mask>
<g mask="url(#mask0_7_247)">
<path id="analytics_2" d="M15.3782 37.3472H19.772V26.3628H15.3782V37.3472ZM32.9533 37.3472H37.3471V15.3784H32.9533V37.3472ZM24.1658 37.3472H28.5595V30.7566H24.1658V37.3472ZM24.1658 26.3628H28.5595V21.969H24.1658V26.3628ZM10.9844 46.1348C9.77615 46.1348 8.74179 45.7045 7.88134 44.8441C7.02089 43.9836 6.59067 42.9493 6.59067 41.741V10.9846C6.59067 9.7763 7.02089 8.74194 7.88134 7.88149C8.74179 7.02104 9.77615 6.59082 10.9844 6.59082H41.7408C42.9491 6.59082 43.9835 7.02104 44.8439 7.88149C45.7044 8.74194 46.1346 9.7763 46.1346 10.9846V41.741C46.1346 42.9493 45.7044 43.9836 44.8439 44.8441C43.9835 45.7045 42.9491 46.1348 41.7408 46.1348H10.9844ZM10.9844 41.741H41.7408V10.9846H10.9844V41.741Z" fill="white"/>
</g>
</g>
</svg>
