<svg width="20" height="20" viewBox="0 0 20 20" fill="none" xmlns="http://www.w3.org/2000/svg">
<g id="copyright">
<mask id="mask0_7_801" style="mask-type:alpha" maskUnits="userSpaceOnUse" x="0" y="0" width="20" height="20">
<rect id="Bounding box" width="20" height="20" fill="#D9D9D9"/>
</mask>
<g mask="url(#mask0_7_801)">
<path id="copyright_2" d="M8.33335 13.3332H11.6667C11.9028 13.3332 12.1007 13.2533 12.2604 13.0936C12.4202 12.9339 12.5 12.7359 12.5 12.4998V10.8332H10.8334V11.6665H9.16669V8.33317H10.8334V9.1665H12.5V7.49984C12.5 7.26373 12.4202 7.06581 12.2604 6.90609C12.1007 6.74636 11.9028 6.6665 11.6667 6.6665H8.33335C8.09724 6.6665 7.89933 6.74636 7.7396 6.90609C7.57988 7.06581 7.50002 7.26373 7.50002 7.49984V12.4998C7.50002 12.7359 7.57988 12.9339 7.7396 13.0936C7.89933 13.2533 8.09724 13.3332 8.33335 13.3332ZM10 18.3332C8.84724 18.3332 7.76391 18.1144 6.75002 17.6769C5.73613 17.2394 4.85419 16.6457 4.10419 15.8957C3.35419 15.1457 2.76044 14.2637 2.32294 13.2498C1.88544 12.2359 1.66669 11.1526 1.66669 9.99984C1.66669 8.84706 1.88544 7.76373 2.32294 6.74984C2.76044 5.73595 3.35419 4.854 4.10419 4.104C4.85419 3.354 5.73613 2.76025 6.75002 2.32275C7.76391 1.88525 8.84724 1.6665 10 1.6665C11.1528 1.6665 12.2361 1.88525 13.25 2.32275C14.2639 2.76025 15.1459 3.354 15.8959 4.104C16.6459 4.854 17.2396 5.73595 17.6771 6.74984C18.1146 7.76373 18.3334 8.84706 18.3334 9.99984C18.3334 11.1526 18.1146 12.2359 17.6771 13.2498C17.2396 14.2637 16.6459 15.1457 15.8959 15.8957C15.1459 16.6457 14.2639 17.2394 13.25 17.6769C12.2361 18.1144 11.1528 18.3332 10 18.3332ZM10 16.6665C11.8611 16.6665 13.4375 16.0207 14.7292 14.729C16.0209 13.4373 16.6667 11.8609 16.6667 9.99984C16.6667 8.13873 16.0209 6.56234 14.7292 5.27067C13.4375 3.979 11.8611 3.33317 10 3.33317C8.13891 3.33317 6.56252 3.979 5.27085 5.27067C3.97919 6.56234 3.33335 8.13873 3.33335 9.99984C3.33335 11.8609 3.97919 13.4373 5.27085 14.729C6.56252 16.0207 8.13891 16.6665 10 16.6665Z" fill="white"/>
</g>
</g>
</svg>
