<svg width="53" height="53" viewBox="0 0 53 53" fill="none" xmlns="http://www.w3.org/2000/svg">
<g id="dataset">
<mask id="mask0_7_356" style="mask-type:alpha" maskUnits="userSpaceOnUse" x="0" y="0" width="53" height="53">
<rect id="Bounding box" width="52.7253" height="52.7253" fill="#D9D9D9"/>
</mask>
<g mask="url(#mask0_7_356)">
<path id="dataset_2" d="M15.3782 37.347H24.1657V28.5594H15.3782V37.347ZM28.5595 37.347H37.3471V28.5594H28.5595V37.347ZM15.3782 24.1657H24.1657V15.3781H15.3782V24.1657ZM28.5595 24.1657H37.3471V15.3781H28.5595V24.1657ZM10.9844 46.1345C9.77614 46.1345 8.74177 45.7043 7.88133 44.8438C7.02088 43.9834 6.59066 42.949 6.59066 41.7407V10.9843C6.59066 9.77606 7.02088 8.74169 7.88133 7.88125C8.74177 7.0208 9.77614 6.59058 10.9844 6.59058H41.7408C42.9491 6.59058 43.9835 7.0208 44.8439 7.88125C45.7044 8.74169 46.1346 9.77606 46.1346 10.9843V41.7407C46.1346 42.949 45.7044 43.9834 44.8439 44.8438C43.9835 45.7043 42.9491 46.1345 41.7408 46.1345H10.9844ZM10.9844 41.7407H41.7408V10.9843H10.9844V41.7407Z" fill="white"/>
</g>
</g>
</svg>
