<svg width="23" height="22" viewBox="0 0 23 22" fill="none" xmlns="http://www.w3.org/2000/svg">
<g id="favorite">
<mask id="mask0_7_565" style="mask-type:alpha" maskUnits="userSpaceOnUse" x="0" y="0" width="23" height="22">
<rect id="Bounding box" x="0.804443" y="0.526367" width="21.4737" height="21.4737" fill="#D9D9D9"/>
</mask>
<g mask="url(#mask0_7_565)">
<path id="favorite_2" d="M11.5413 19.3159L10.2439 18.1527C8.73776 16.7957 7.49259 15.6251 6.50838 14.6409C5.52417 13.6567 4.74127 12.7731 4.15969 11.9902C3.57811 11.2073 3.17175 10.4878 2.94061 9.83167C2.70947 9.17553 2.5939 8.50448 2.5939 7.81851C2.5939 6.41676 3.06364 5.24615 4.00311 4.30667C4.94259 3.3672 6.1132 2.89746 7.51496 2.89746C8.29039 2.89746 9.02855 3.0615 9.72943 3.38957C10.4303 3.71764 11.0343 4.17992 11.5413 4.77641C12.0483 4.17992 12.6522 3.71764 13.3531 3.38957C14.054 3.0615 14.7921 2.89746 15.5676 2.89746C16.9693 2.89746 18.14 3.3672 19.0794 4.30667C20.0189 5.24615 20.4886 6.41676 20.4886 7.81851C20.4886 8.50448 20.3731 9.17553 20.1419 9.83167C19.9108 10.4878 19.5044 11.2073 18.9229 11.9902C18.3413 12.7731 17.5584 13.6567 16.5742 14.6409C15.59 15.6251 14.3448 16.7957 12.8386 18.1527L11.5413 19.3159ZM11.5413 16.9001C12.9729 15.6176 14.1509 14.5179 15.0755 13.6008C16 12.6836 16.7307 11.8858 17.2676 11.2073C17.8044 10.5288 18.1772 9.92487 18.386 9.39549C18.5948 8.8661 18.6992 8.34044 18.6992 7.81851C18.6992 6.92378 18.4009 6.17816 17.8044 5.58167C17.2079 4.98518 16.4623 4.68693 15.5676 4.68693C14.8667 4.68693 14.218 4.88452 13.6215 5.2797C13.025 5.67487 12.615 6.17816 12.3913 6.78957H10.6913C10.4676 6.17816 10.0575 5.67487 9.46101 5.2797C8.86452 4.88452 8.21583 4.68693 7.51496 4.68693C6.62022 4.68693 5.8746 4.98518 5.27811 5.58167C4.68162 6.17816 4.38338 6.92378 4.38338 7.81851C4.38338 8.34044 4.48776 8.8661 4.69653 9.39549C4.90531 9.92487 5.27811 10.5288 5.81496 11.2073C6.3518 11.8858 7.0825 12.6836 8.00706 13.6008C8.93162 14.5179 10.1097 15.6176 11.5413 16.9001Z" fill="white"/>
</g>
</g>
</svg>
