<svg width="47" height="47" viewBox="0 0 47 47" fill="none" xmlns="http://www.w3.org/2000/svg">
<g id="Group 1">
<rect id="Rectangle 12346" width="46.5651" height="46.5651" rx="9" fill="#255CEE"/>
<g id="analytics">
<mask id="mask0_7_84" style="mask-type:alpha" maskUnits="userSpaceOnUse" x="7" y="6" width="34" height="34">
<rect id="Bounding box" x="7.22562" y="6.42279" width="32.9167" height="32.9167" fill="#D9D9D9"/>
</mask>
<g mask="url(#mask0_7_84)">
<path id="analytics_2" d="M16.8263 29.7387H19.5694V22.8811H16.8263V29.7387ZM27.7986 29.7387H30.5416V16.0234H27.7986V29.7387ZM22.3124 29.7387H25.0555V25.6241H22.3124V29.7387ZM22.3124 22.8811H25.0555V20.138H22.3124V22.8811ZM14.0833 35.2248C13.3289 35.2248 12.6832 34.9562 12.146 34.419C11.6088 33.8819 11.3402 33.2361 11.3402 32.4818V13.2804C11.3402 12.526 11.6088 11.8802 12.146 11.3431C12.6832 10.8059 13.3289 10.5373 14.0833 10.5373H33.2847C34.039 10.5373 34.6848 10.8059 35.222 11.3431C35.7591 11.8802 36.0277 12.526 36.0277 13.2804V32.4818C36.0277 33.2361 35.7591 33.8819 35.222 34.419C34.6848 34.9562 34.039 35.2248 33.2847 35.2248H14.0833ZM14.0833 32.4818H33.2847V13.2804H14.0833V32.4818Z" fill="white"/>
</g>
</g>
</g>
</svg>
