<svg width="25" height="25" viewBox="0 0 25 25" fill="none" xmlns="http://www.w3.org/2000/svg">
<g id="manage_search">
<mask id="mask0_7_57" style="mask-type:alpha" maskUnits="userSpaceOnUse" x="0" y="0" width="25" height="25">
<rect id="Bounding box" width="25" height="25" fill="#D9D9D9"/>
</mask>
<g mask="url(#mask0_7_57)">
<path id="manage_search_2" d="M2.08337 19.7917V17.7083H12.5V19.7917H2.08337ZM2.08337 14.5833V12.5H7.29171V14.5833H2.08337ZM2.08337 9.375V7.29167H7.29171V9.375H2.08337ZM21.4584 19.7917L17.448 15.7812C17.0313 16.0764 16.5756 16.2977 16.0808 16.4453C15.586 16.5929 15.0868 16.6667 14.5834 16.6667C13.1424 16.6667 11.9141 16.1589 10.8985 15.1432C9.88285 14.1276 9.37504 12.8993 9.37504 11.4583C9.37504 10.0174 9.88285 8.78906 10.8985 7.77344C11.9141 6.75781 13.1424 6.25 14.5834 6.25C16.0243 6.25 17.2526 6.75781 18.2683 7.77344C19.2839 8.78906 19.7917 10.0174 19.7917 11.4583C19.7917 11.9618 19.7179 12.4609 19.5704 12.9557C19.4228 13.4505 19.2014 13.9062 18.9063 14.3229L22.9167 18.3333L21.4584 19.7917ZM14.5834 14.5833C15.4514 14.5833 16.1893 14.2795 16.7969 13.6719C17.4046 13.0642 17.7084 12.3264 17.7084 11.4583C17.7084 10.5903 17.4046 9.85243 16.7969 9.24479C16.1893 8.63715 15.4514 8.33333 14.5834 8.33333C13.7153 8.33333 12.9775 8.63715 12.3698 9.24479C11.7622 9.85243 11.4584 10.5903 11.4584 11.4583C11.4584 12.3264 11.7622 13.0642 12.3698 13.6719C12.9775 14.2795 13.7153 14.5833 14.5834 14.5833Z" fill="white"/>
</g>
</g>
</svg>
