<svg width="53" height="53" viewBox="0 0 53 53" fill="none" xmlns="http://www.w3.org/2000/svg">
<g id="order_play">
<mask id="mask0_7_265" style="mask-type:alpha" maskUnits="userSpaceOnUse" x="0" y="0" width="53" height="53">
<rect id="Bounding box" width="52.7253" height="52.7253" fill="#D9D9D9"/>
</mask>
<g mask="url(#mask0_7_265)">
<path id="order_play_2" d="M36.7978 45.0363L45.5853 39.5441L36.7978 34.0519V45.0363ZM13.1813 19.7721H39.5439V15.3784H13.1813V19.7721ZM39.5439 50.5285C36.5049 50.5285 33.9144 49.4576 31.7724 47.3156C29.6304 45.1736 28.5595 42.5831 28.5595 39.5441C28.5595 36.5051 29.6304 33.9146 31.7724 31.7726C33.9144 29.6307 36.5049 28.5597 39.5439 28.5597C42.5829 28.5597 45.1734 29.6307 47.3154 31.7726C49.4573 33.9146 50.5283 36.5051 50.5283 39.5441C50.5283 42.5831 49.4573 45.1736 47.3154 47.3156C45.1734 49.4576 42.5829 50.5285 39.5439 50.5285ZM6.59061 48.3316V10.9846C6.59061 9.7763 7.02083 8.74194 7.88128 7.88149C8.74172 7.02104 9.77609 6.59082 10.9844 6.59082H41.7408C42.9491 6.59082 43.9834 7.02104 44.8439 7.88149C45.7043 8.74194 46.1345 9.7763 46.1345 10.9846V25.6488C45.4389 25.3193 44.7249 25.0447 43.9926 24.825C43.2603 24.6053 42.5097 24.4405 41.7408 24.3307V10.9846H10.9844V41.8508H24.3305C24.5135 42.9859 24.7973 44.066 25.1818 45.0912C25.5662 46.1165 26.0697 47.0867 26.6921 48.0021L26.3626 48.3316L23.0672 45.0363L19.7719 48.3316L16.4766 45.0363L13.1813 48.3316L9.88594 45.0363L6.59061 48.3316ZM13.1813 37.3472H24.3305C24.4403 36.5783 24.6051 35.8277 24.8248 35.0954C25.0444 34.3631 25.3191 33.6491 25.6486 32.9534H13.1813V37.3472ZM13.1813 28.5597H28.7792C30.1705 27.2049 31.7907 26.1339 33.6398 25.3467C35.4888 24.5595 37.4569 24.1659 39.5439 24.1659H13.1813V28.5597Z" fill="white"/>
</g>
</g>
</svg>
