<svg width="16" height="17" viewBox="0 0 16 17" fill="none" xmlns="http://www.w3.org/2000/svg">
<g id="send_money">
<mask id="mask0_7_29" style="mask-type:alpha" maskUnits="userSpaceOnUse" x="0" y="0" width="16" height="17">
<rect id="Bounding box" x="0.285706" y="0.785706" width="15.4286" height="15.4286" fill="#D9D9D9"/>
</mask>
<g mask="url(#mask0_7_29)">
<path id="send_money_2" d="M4.14285 13.4821C3.02856 13.1929 2.10713 12.5929 1.37856 11.6821C0.649991 10.7714 0.285706 9.71072 0.285706 8.5C0.285706 7.28929 0.649991 6.22858 1.37856 5.31786C2.10713 4.40715 3.02856 3.80715 4.14285 3.51786V4.86786C3.38213 5.125 2.76338 5.58572 2.2866 6.25C1.80981 6.91429 1.57142 7.66429 1.57142 8.5C1.57142 9.33572 1.80981 10.0857 2.2866 10.75C2.76338 11.4143 3.38213 11.875 4.14285 12.1321V13.4821ZM9.28571 13.6429C7.86071 13.6429 6.64731 13.142 5.64553 12.1402C4.64374 11.1384 4.14285 9.925 4.14285 8.5C4.14285 7.075 4.64374 5.86161 5.64553 4.85983C6.64731 3.85804 7.86071 3.35715 9.28571 3.35715C9.99285 3.35715 10.6571 3.49108 11.2786 3.75893C11.9 4.02679 12.4464 4.39643 12.9178 4.86786L12.0178 5.76786C11.6643 5.41429 11.2545 5.1384 10.7884 4.94018C10.3223 4.74197 9.82142 4.64286 9.28571 4.64286C8.21428 4.64286 7.30356 5.01786 6.55356 5.76786C5.80356 6.51786 5.42856 7.42858 5.42856 8.5C5.42856 9.57143 5.80356 10.4821 6.55356 11.2321C7.30356 11.9821 8.21428 12.3571 9.28571 12.3571C9.82142 12.3571 10.3223 12.258 10.7884 12.0598C11.2545 11.8616 11.6643 11.5857 12.0178 11.2321L12.9178 12.1321C12.4464 12.6036 11.9 12.9732 11.2786 13.2411C10.6571 13.5089 9.99285 13.6429 9.28571 13.6429ZM13.1428 11.0714L12.2428 10.1714L13.2714 9.14286H8.64285V7.85715H13.2714L12.2428 6.82858L13.1428 5.92858L15.7143 8.5L13.1428 11.0714Z" fill="white"/>
</g>
</g>
</svg>
