<svg width="53" height="53" viewBox="0 0 53 53" fill="none" xmlns="http://www.w3.org/2000/svg">
<g id="track_changes">
<mask id="mask0_7_338" style="mask-type:alpha" maskUnits="userSpaceOnUse" x="0" y="0" width="53" height="53">
<rect id="Bounding box" width="52.7253" height="52.7253" fill="#D9D9D9"/>
</mask>
<g mask="url(#mask0_7_338)">
<path id="track_changes_2" d="M26.3626 48.3315C23.3236 48.3315 20.4676 47.7548 17.7948 46.6015C15.1219 45.4481 12.7969 43.8828 10.8197 41.9056C8.84246 39.9284 7.27718 37.6034 6.12382 34.9305C4.97045 32.2576 4.39377 29.4017 4.39377 26.3627C4.39377 23.3236 4.97045 20.4677 6.12382 17.7948C7.27718 15.1219 8.84246 12.7969 10.8197 10.8197C12.7969 8.84249 15.1219 7.27721 17.7948 6.12385C20.4676 4.97048 23.3236 4.3938 26.3626 4.3938H28.5595V22.573C29.2186 22.9758 29.7495 23.4976 30.1523 24.1383C30.555 24.7791 30.7564 25.5205 30.7564 26.3627C30.7564 27.5709 30.3262 28.6053 29.4657 29.4658C28.6053 30.3262 27.5709 30.7564 26.3626 30.7564C25.1543 30.7564 24.12 30.3262 23.2595 29.4658C22.3991 28.6053 21.9689 27.5709 21.9689 26.3627C21.9689 25.5205 22.1702 24.7699 22.573 24.1108C22.9758 23.4518 23.5067 22.9392 24.1657 22.573V17.8497C22.2618 18.3623 20.6873 19.3967 19.4424 20.9528C18.1975 22.509 17.5751 24.3122 17.5751 26.3627C17.5751 28.7792 18.4355 30.848 20.1564 32.5689C21.8773 34.2897 23.9461 35.1502 26.3626 35.1502C28.7792 35.1502 30.8479 34.2897 32.5688 32.5689C34.2897 30.848 35.1502 28.7792 35.1502 26.3627C35.1502 25.0445 34.8847 23.8271 34.3538 22.7103C33.8229 21.5936 33.0997 20.6141 32.1844 19.772L35.3149 16.6414C36.5965 17.8497 37.6217 19.2869 38.3906 20.9528C39.1595 22.6188 39.5439 24.4221 39.5439 26.3627C39.5439 30.0241 38.2624 33.1364 35.6994 35.6994C33.1364 38.2625 30.0241 39.544 26.3626 39.544C22.7011 39.544 19.5889 38.2625 17.0259 35.6994C14.4628 33.1364 13.1813 30.0241 13.1813 26.3627C13.1813 23.0673 14.2248 20.2022 16.3119 17.7673C18.3989 15.3325 21.0169 13.8587 24.1657 13.3461V8.89741C19.8086 9.44664 16.1563 11.3689 13.2088 14.6642C10.2613 17.9596 8.78754 21.859 8.78754 26.3627C8.78754 31.269 10.4901 35.4248 13.8953 38.83C17.3005 42.2352 21.4562 43.9377 26.3626 43.9377C31.269 43.9377 35.4248 42.2352 38.8299 38.83C42.2351 35.4248 43.9377 31.269 43.9377 26.3627C43.9377 23.8362 43.4434 21.4746 42.4548 19.2777C41.4662 17.0808 40.1115 15.1768 38.3906 13.5658L41.5211 10.4352C43.6082 12.449 45.265 14.8199 46.4916 17.5477C47.7182 20.2755 48.3315 23.2138 48.3315 26.3627C48.3315 29.4017 47.7548 32.2576 46.6014 34.9305C45.4481 37.6034 43.8828 39.9284 41.9056 41.9056C39.9284 43.8828 37.6034 45.4481 34.9305 46.6015C32.2576 47.7548 29.4016 48.3315 26.3626 48.3315Z" fill="white"/>
</g>
</g>
</svg>
