<svg width="23" height="22" viewBox="0 0 23 22" fill="none" xmlns="http://www.w3.org/2000/svg">
<g id="visibility">
<mask id="mask0_7_559" style="mask-type:alpha" maskUnits="userSpaceOnUse" x="0" y="0" width="23" height="22">
<rect id="Bounding box" x="0.804443" width="21.4737" height="21.4737" fill="#D9D9D9"/>
</mask>
<g mask="url(#mask0_7_559)">
<path id="visibility_2" d="M11.5413 14.3159C12.6597 14.3159 13.6104 13.9245 14.3933 13.1416C15.1762 12.3587 15.5676 11.408 15.5676 10.2896C15.5676 9.17121 15.1762 8.22055 14.3933 7.43765C13.6104 6.65476 12.6597 6.26331 11.5413 6.26331C10.4229 6.26331 9.47221 6.65476 8.68932 7.43765C7.90642 8.22055 7.51498 9.17121 7.51498 10.2896C7.51498 11.408 7.90642 12.3587 8.68932 13.1416C9.47221 13.9245 10.4229 14.3159 11.5413 14.3159ZM11.5413 12.7054C10.8702 12.7054 10.2998 12.4705 9.83011 12.0008C9.36037 11.5311 9.1255 10.9607 9.1255 10.2896C9.1255 9.61858 9.36037 9.04818 9.83011 8.57844C10.2998 8.10871 10.8702 7.87384 11.5413 7.87384C12.2123 7.87384 12.7827 8.10871 13.2525 8.57844C13.7222 9.04818 13.9571 9.61858 13.9571 10.2896C13.9571 10.9607 13.7222 11.5311 13.2525 12.0008C12.7827 12.4705 12.2123 12.7054 11.5413 12.7054ZM11.5413 17.0002C9.3641 17.0002 7.38077 16.3925 5.59129 15.1771C3.80182 13.9618 2.50445 12.3326 1.69919 10.2896C2.50445 8.24665 3.80182 6.61748 5.59129 5.40213C7.38077 4.18678 9.3641 3.5791 11.5413 3.5791C13.7185 3.5791 15.7018 4.18678 17.4913 5.40213C19.2808 6.61748 20.5781 8.24665 21.3834 10.2896C20.5781 12.3326 19.2808 13.9618 17.4913 15.1771C15.7018 16.3925 13.7185 17.0002 11.5413 17.0002ZM11.5413 15.2107C13.2264 15.2107 14.7735 14.767 16.1827 13.8798C17.592 12.9925 18.6694 11.7958 19.415 10.2896C18.6694 8.78349 17.592 7.58678 16.1827 6.6995C14.7735 5.81222 13.2264 5.36858 11.5413 5.36858C9.85621 5.36858 8.30906 5.81222 6.89985 6.6995C5.49064 7.58678 4.41322 8.78349 3.66761 10.2896C4.41322 11.7958 5.49064 12.9925 6.89985 13.8798C8.30906 14.767 9.85621 15.2107 11.5413 15.2107Z" fill="white"/>
</g>
</g>
</svg>
